<svg width="30" height="30" viewBox="0 0 30 30" fill="none" xmlns="http://www.w3.org/2000/svg">
<rect x="0.5" y="0.5" width="29" height="29" stroke="#110D26"/>
<path d="M25.1062 4.01719C24.0797 2.99063 22.4203 2.99063 21.3937 4.01719L20.25 5.16094L24.8391 9.75L25.9828 8.60625C27.0094 7.57969 27.0094 5.92032 25.9828 4.89375L25.1062 4.01719ZM11.0812 14.3297C10.7953 14.6156 10.575 14.9672 10.4484 15.3563L9.06094 19.5188C8.925 19.9219 9.03281 20.3672 9.33281 20.6719C9.63281 20.9766 10.0781 21.0797 10.4859 20.9438L14.6484 19.5563C15.0328 19.4297 15.3844 19.2094 15.675 18.9234L23.25 11.3391L18.6609 6.75L11.0812 14.3297ZM7.5 6C5.01562 6 3 8.01563 3 10.5V22.5C3 24.9844 5.01562 27 7.5 27H19.5C21.9844 27 24 24.9844 24 22.5V18C24 17.1703 23.3297 16.5 22.5 16.5C21.6703 16.5 21 17.1703 21 18V22.5C21 23.3297 20.3297 24 19.5 24H7.5C6.67031 24 6 23.3297 6 22.5V10.5C6 9.67032 6.67031 9 7.5 9H12C12.8297 9 13.5 8.32969 13.5 7.5C13.5 6.67032 12.8297 6 12 6H7.5Z" fill="#110D26"/>
</svg>
