<svg width="30" height="30" viewBox="0 0 30 30" fill="none" xmlns="http://www.w3.org/2000/svg">
<rect x="0.5" y="0.5" width="29" height="29" stroke="#110D26"/>
<path d="M10.9078 3.27656L10.5 4.5H6C5.17031 4.5 4.5 5.17031 4.5 6C4.5 6.82969 5.17031 7.5 6 7.5H24C24.8297 7.5 25.5 6.82969 25.5 6C25.5 5.17031 24.8297 4.5 24 4.5H19.5L19.0922 3.27656C18.8859 2.6625 18.3141 2.25 17.6672 2.25H12.3328C11.6859 2.25 11.1141 2.6625 10.9078 3.27656ZM24 9.75H6L6.98906 24.8953C7.06406 26.0812 8.04844 27 9.23438 27H20.7656C21.9516 27 22.9359 26.0812 23.0109 24.8953L24 9.75Z" fill="#110D26"/>
</svg>
